Coordinates
version=1
nRows=13
nColumns=36
inDegrees=yes

Units are S.I. units (second, meters, Newtons, ...)
If the header above contains a line with 'inDegrees', this indicates whether rotational values are in degrees (yes) or radians (no).

endheader
time	pelvis_tilt	pelvis_list	pelvis_rotation	pelvis_tx	pelvis_ty	pelvis_tz	hip_flexion_r	hip_adduction_r	hip_rotation_r	knee_angle_r	knee_angle_r_beta	ankle_angle_r	subtalar_angle_r	mtp_angle_r	hip_flexion_l	hip_adduction_l	hip_rotation_l	knee_angle_l	knee_angle_l_beta	ankle_angle_l	subtalar_angle_l	mtp_angle_l	lumbar_extension	lumbar_bending	lumbar_rotation	arm_flex_r	arm_add_r	arm_rot_r	elbow_flex_r	pro_sup_r	arm_flex_l	arm_add_l	arm_rot_l	elbow_flex_l	pro_sup_l
      8.90000000	     -3.34428973	      0.28993749	      1.93374308	     -0.07520401	      0.87756727	      0.09506043	      6.07307794	     -8.07805938	     -4.54930974	     11.36579095	      0.19837047	      7.66560725	     -6.55186154	     -7.49999987	      6.07702130	     -7.79001120	     -9.38612280	     11.83502903	      0.20656022	      4.93209151	     -3.83655135	     -7.49999987	      5.30058832	      0.02108830	     -1.28918181	     41.68096668	      8.94168146	     55.87859253	    130.75283000	     86.59334901	     49.93262782	     10.93219284	     58.16598452	    129.23383994	     70.02856056
      8.91666670	     -3.18645871	      0.31821707	      1.98285706	     -0.07674093	      0.87696742	      0.09474022	      6.00525384	     -8.13482838	     -4.49407930	     11.46616957	      0.20012241	      7.60684982	     -6.66814298	     -7.49999987	      6.01880017	     -7.73172790	     -9.32782221	     11.89791839	      0.20765785	      4.73077294	     -4.08500365	     -7.49999987	      4.98556693	      0.01549120	     -1.42297983	     41.95339327	      8.91179320	     55.91926130	    130.45409137	     85.98168648	     50.23572570	     10.74351091	     58.08527384	    128.95964959	     69.72984563
      8.93333330	     -3.19172293	      0.35853372	      1.95670748	     -0.07894988	      0.87619897	      0.09515184	      6.19800412	     -8.18966266	     -4.30771761	     11.64064618	      0.20316760	      7.50294525	     -6.89574646	     -7.49999987	      6.18816379	     -7.69297160	     -9.39911067	     11.99268837	      0.20931190	      4.70245214	     -4.01538642	     -7.49999987	      4.79185557	     -0.01895065	     -1.47547932	     42.30202052	      8.90224667	     55.76571120	    130.04971742	     85.23899984	     50.51412514	     10.60216319	     57.93100018	    128.84831947	     69.54763875
      8.95000000	     -3.34762454	      0.40518023	      1.95950002	     -0.08073842	      0.87947792	      0.09608543	      6.52757689	     -8.23310714	     -4.22029992	     11.73171817	      0.20475711	      7.32635974	     -6.94460282	     -7.49999987	      6.55240067	     -7.66944874	     -9.46510850	     12.06630076	      0.21059668	      4.47044660	     -3.97144489	     -7.49999987	      4.75667471	     -0.07901130	     -1.46237007	     42.33332128	      8.85872134	     55.74035973	    129.73185310	     85.08196904	     50.58285162	     10.36858355	     57.90335133	    128.65871141	     69.48226537
      8.96666670	     -3.38960864	      0.41939524	      1.83368614	     -0.08217415	      0.87955994	      0.09570953	      6.82036320	     -8.24068323	     -4.11849697	     11.88458794	      0.20742519	      7.32714817	     -6.84328857	     -7.49999987	      6.74915404	     -7.71599339	     -9.74850215	     12.13934811	      0.21187159	      4.49973343	     -3.65504541	     -7.49999987	      4.54496570	     -0.02994457	     -1.36790791	     42.44112055	      8.90268499	     55.34673035	    129.23862073	     88.99775202	     50.65348486	     10.21442099	     57.59563297	    128.55208667	     71.30308328
      8.98333330	     -3.49288457	      0.43257327	      1.90738154	     -0.08433551	      0.87633428	      0.09594751	      7.20456395	     -8.27151464	     -4.02115445	     12.11051103	      0.21136829	      7.33963058	     -6.99777979	     -7.49999987	      7.17790083	     -7.70964987	     -9.56338354	     12.39863130	      0.21639694	      4.47994277	     -3.91584542	     -7.49999987	      4.33678183	     -0.02782185	     -1.36882586	     42.72441509	      9.02244378	     55.51913971	    128.98856167	     86.65649837	     50.81304476	     10.16403942	     57.68916366	    128.76362828	     70.06291460
      9.00000000	     -3.64246660	      0.45116239	      1.98351126	     -0.08659648	      0.87659334	      0.09504675	      7.67651110	     -8.34938832	     -3.98738520	     12.38657270	      0.21618648	      7.24959037	     -7.21208258	     -7.49999987	      7.70089670	     -7.71140348	     -9.55125242	     12.74275060	      0.22240295	      4.40117680	     -3.92908695	     -7.49999987	      4.12009024	      0.00335038	     -1.38113631	     42.91361082	      9.09199468	     55.35022569	    128.57977179	     89.92082377	     50.94150487	      9.96750873	     57.36786314	    128.70813159	     71.95101195
      9.01666670	     -4.02813996	      0.44625051	      2.05721753	     -0.08955147	      0.87809282	      0.09635135	      8.42239261	     -8.37796422	     -4.01933978	     12.62884636	      0.22041495	      7.19104623	     -7.20735318	     -7.49999987	      8.49976932	     -7.73560599	     -9.42858194	     13.07851753	      0.22826319	      4.21606992	     -4.09916036	     -7.49999987	      4.24892386	     -0.01842500	     -1.38095912	     42.74153442	      9.06940285	     55.20712048	    128.20379559	     88.58615272	     50.78021403	     10.02433869	     57.25481692	    128.55063972	     71.19230129
      9.03333330	     -3.96178496	      0.41806747	      2.03838917	     -0.09241317	      0.87613578	      0.09672604	      8.78323922	     -8.35152887	     -4.04733735	     13.02897813	      0.22739857	      7.08874755	     -7.39791902	     -7.49999987	      8.85642191	     -7.84543912	     -9.55216075	     13.52279851	      0.23601736	      4.12303145	     -4.15335311	     -7.49999987	      3.58161955	      0.05921225	     -1.28513832	     43.19331724	      9.05711163	     55.51235980	    127.99639543	     86.46803830	     51.33108690	     10.06346339	     57.64326299	    128.74006303	     69.96762356
      9.05000000	     -4.18735330	      0.35729625	      1.96938403	     -0.09601908	      0.87399555	      0.09796890	      9.58984461	     -8.26006422	     -3.88256384	     13.59300271	      0.23724265	      6.96260666	     -7.85466331	     -7.49999987	      9.65809835	     -8.02167751	     -9.59652081	     14.19950472	      0.24782811	      4.09185603	     -4.42792322	     -7.49999987	      3.24899022	      0.10562376	     -1.04004312	     43.50731431	      9.10645548	     55.28287724	    127.82687841	     89.40251173	     51.59024695	     10.25412326	     57.74137947	    129.07329733	     71.86181358
      9.06666670	     -4.44971785	      0.26705818	      1.93686030	     -0.09864111	      0.87391635	      0.09880678	     10.45426204	     -8.16564752	     -3.88943906	     14.20073815	      0.24784964	      7.03242652	     -7.93384066	     -7.49999987	     10.52453598	     -8.25192372	     -9.61929795	     14.89520644	      0.25997040	      4.08465271	     -4.51283997	     -7.49999987	      2.93633968	      0.20579694	     -0.84049055	     43.69984540	      9.27942527	     55.18265226	    127.74915387	     88.77866286	     51.83560943	     10.45753256	     57.70036302	    129.25609217	     71.59558914
      9.08333330	     -4.71638839	      0.17169378	      1.89405072	     -0.10197020	      0.87661450	      0.09933102	     11.33747282	     -8.07781732	     -3.92206066	     14.83143194	      0.25885732	      7.00467030	     -7.89836441	     -7.49999987	     11.51095349	     -8.50739611	     -9.53464027	     15.71021741	      0.27419502	      3.95922885	     -4.81640310	     -7.49999987	      2.43647982	      0.25067588	     -0.63862349	     43.71422677	      9.29220225	     55.45604383	    127.72049102	     88.06574130	     51.94465202	     10.35721214	     58.04159410	    129.55487309	     71.33416311
      9.10000000	     -5.01784697	      0.15187764	      1.85398829	     -0.10702860	      0.87462442	      0.10060357	     12.36169287	     -8.05063079	     -3.78791938	     15.48559194	      0.27027457	      7.01388687	     -8.13565480	     -7.49999987	     12.67177063	     -8.70899927	     -9.50285051	     16.75073904	      0.29235555	      3.81576105	     -5.30473509	     -7.49999987	      1.94550466	      0.20784787	     -0.68560733	     43.73435398	      9.40516077	     55.97515582	    127.95056733	     86.05435069	     52.11929811	     10.04306552	     58.36628770	    129.81550240	     70.30307978
